<?xml version="1.0" encoding="iso-8859-1"?>
<!-- Generator: Adobe Illustrator 15.1.0, SVG Export Plug-In . SVG Version: 6.00 Build 0)  -->
<!DOCTYPE svg PUBLIC "-//W3C//DTD SVG 1.1//EN" "http://www.w3.org/Graphics/SVG/1.1/DTD/svg11.dtd">
<svg version="1.1" id="Layer_1" xmlns="http://www.w3.org/2000/svg" xmlns:xlink="http://www.w3.org/1999/xlink" x="0px" y="0px"
	 width="133.128px" height="57.85px" viewBox="0 0 133.128 57.85" style="enable-background:new 0 0 133.128 57.85;"
	 xml:space="preserve">
<g>
	<g>
		<path style="fill:#E30613;" d="M114.101,8.231c-0.926-0.942-1.391-2.079-1.391-3.41c0-1.302,0.465-2.44,1.377-3.383
			C115.013,0.486,116.134,0,117.435,0c1.277,0,2.395,0.477,3.322,1.425c0.932,0.944,1.406,2.095,1.406,3.396
			c0,1.331-0.465,2.468-1.395,3.41c-0.93,0.948-2.057,1.423-3.334,1.423C116.134,9.654,115.013,9.18,114.101,8.231z M133.128,19.118
			v-2.933c0-2.771-2.248-5.023-5.021-5.023h-21.346c-2.773,0-5.02,2.253-5.02,5.023v11.041h23.811V28.9h-23.811v2.928
			c0,2.773,2.246,5.022,5.02,5.022h21.346c2.773,0,5.021-2.249,5.021-5.022V20.79H109.32v-1.672H133.128z"/>
		<path style="fill:#00497B;" d="M0,13.453c0-1.524,0.683-2.287,2.207-2.287h14.046v3.17c0,1.525-0.763,2.248-2.287,2.248H6.421
			v4.615h8.428v5.217H6.421v5.016h10.032v3.17c0,1.525-0.762,2.248-2.287,2.248H2.207C0.683,36.85,0,36.087,0,34.563V13.453z
			 M19.065,13.453c0-1.524,0.683-2.287,2.208-2.287h8.347c5.859,0,9.23,2.689,9.23,7.745c0,3.491-1.324,5.739-4.495,7.022
			l5.017,9.793c0.16,0.36,0.361,0.722,0.361,1.123h-5.538c-1.164,0-1.646,0-2.207-1.164l-4.495-9.27h-2.007V36.85h-6.421V13.453z
			 M25.486,16.584v4.615h3.652c1.846,0,3.291-0.241,3.291-2.288c0-2.007-1.445-2.327-3.291-2.327H25.486z M49.368,10.965
			c5.338,0,8.106,0.603,8.106,3.09v2.529h-7.304c-1.966,0-2.528,0.521-2.528,1.564c0,3.09,11.156,2.448,11.156,11.117
			c0,4.133-2.367,7.785-9.591,7.785c-4.735,0-8.468-0.764-8.468-3.09v-2.529h8.628c1.766,0,2.608-0.562,2.608-1.806
			c0-3.37-11.116-2.729-11.116-11.638C40.86,14.055,43.469,10.965,49.368,10.965z M76.461,11.166v3.25
			c0,1.485-0.763,2.168-2.247,2.168h-3.171V36.85h-6.422V16.584h-5.417v-3.251c0-1.485,0.762-2.167,2.247-2.167H76.461z
			 M78.471,13.453c0-1.524,0.683-2.287,2.208-2.287h14.045v3.17c0,1.525-0.762,2.248-2.287,2.248h-7.545v4.615h8.428v5.217h-8.428
			v5.016h10.033v3.17c0,1.525-0.763,2.248-2.287,2.248H80.679c-1.525,0-2.208-0.763-2.208-2.287V13.453z M8.611,53.838
			c0,0.883-1.044,1.104-3.411,1.104c-3.411,0-5.037-2.027-5.037-6.521s1.626-6.521,5.037-6.521c2.367,0,3.25,0.221,3.25,1.104v0.602
			H5.22c-2.207,0-3.09,1.125-3.09,4.816s0.883,4.816,3.09,4.816h1.505v-3.854c0-0.621,0.221-0.963,0.823-0.963h1.063V53.838z
			 M10.696,54.84V44.809h0.902c0.603,0,0.863,0.48,0.903,1.244c0.782-1.044,1.826-1.345,2.589-1.345c0.341,0,0.702,0.08,0.702,0.501
			v1.285h-0.502c-1.465,0-2.207,0.361-2.789,0.842v7.504H10.696z M16.132,49.824c0-2.809,0.923-5.116,4.073-5.116
			c3.171,0,4.073,2.308,4.073,5.116c0,2.81-0.902,5.117-4.073,5.117C17.055,54.941,16.132,52.634,16.132,49.824z M22.412,49.824
			c0-2.468-0.481-3.771-2.207-3.771c-1.705,0-2.207,1.304-2.207,3.771c0,2.469,0.502,3.772,2.207,3.772
			C21.931,53.597,22.412,52.293,22.412,49.824z M33.606,44.809V54.84h-0.902c-0.643,0-0.883-0.34-0.883-0.822v-0.34
			c-0.843,0.922-1.866,1.264-2.81,1.264c-1.966,0-2.93-1.204-2.93-3.07v-7.063h1.806v6.982c0,1.184,0.683,1.686,1.826,1.686
			c0.742,0,1.545-0.361,2.107-0.843v-7.825H33.606z M37.718,57.85h-1.806V44.809h0.902c0.643,0,0.903,0.341,0.903,0.842v0.322
			c0.562-0.663,1.465-1.265,2.608-1.265c2.368,0,3.472,1.946,3.472,5.116s-1.104,5.117-3.472,5.117
			c-1.144,0-2.047-0.602-2.608-1.264V57.85z M39.725,46.152c-0.783,0-1.485,0.361-2.007,0.843v5.618
			c0.521,0.482,1.224,0.844,2.007,0.844c1.564,0,2.207-1.285,2.207-3.633S41.289,46.152,39.725,46.152z"/>
	</g>
</g>
</svg>
